<mxfile host="app.diagrams.net" modified="2023-03-31T02:16:02.157Z" agent="Mozilla/5.0 (Macintosh; Intel Mac OS X 10_15_7) AppleWebKit/537.36 (KHTML, like Gecko) Chrome/111.0.0.0 Safari/537.36" etag="zg9WjkgLVN6d6Y7NhghV" version="21.1.1" type="github">
  <diagram name="第 1 页" id="qazpv371DhJqDgAL6qYP">
    <mxGraphModel dx="1434" dy="796" grid="0" gridSize="10" guides="1" tooltips="1" connect="1" arrows="1" fold="1" page="1" pageScale="1" pageWidth="827" pageHeight="1169" math="0" shadow="0">
      <root>
        <mxCell id="0" />
        <mxCell id="1" parent="0" />
        <mxCell id="vDN9zw8na1QjRPx6cQHA-1" value="w1" style="ellipse;whiteSpace=wrap;html=1;aspect=fixed;fillColor=#f5f5f5;gradientColor=#b3b3b3;strokeColor=#666666;" vertex="1" parent="1">
          <mxGeometry x="266" y="330" width="47" height="47" as="geometry" />
        </mxCell>
        <mxCell id="vDN9zw8na1QjRPx6cQHA-2" value="w2" style="ellipse;whiteSpace=wrap;html=1;aspect=fixed;fillColor=#f5f5f5;gradientColor=#b3b3b3;strokeColor=#666666;" vertex="1" parent="1">
          <mxGeometry x="266" y="598" width="47" height="47" as="geometry" />
        </mxCell>
        <mxCell id="vDN9zw8na1QjRPx6cQHA-3" value="x" style="ellipse;whiteSpace=wrap;html=1;aspect=fixed;fillColor=#d5e8d4;strokeColor=#82b366;" vertex="1" parent="1">
          <mxGeometry x="58" y="449" width="47" height="47" as="geometry" />
        </mxCell>
        <mxCell id="vDN9zw8na1QjRPx6cQHA-4" value="y" style="ellipse;whiteSpace=wrap;html=1;aspect=fixed;fillColor=#d5e8d4;strokeColor=#82b366;" vertex="1" parent="1">
          <mxGeometry x="62" y="531" width="47" height="47" as="geometry" />
        </mxCell>
        <mxCell id="vDN9zw8na1QjRPx6cQHA-5" value="z" style="ellipse;whiteSpace=wrap;html=1;aspect=fixed;fillColor=#f8cecc;strokeColor=#b85450;gradientColor=#ea6b66;" vertex="1" parent="1">
          <mxGeometry x="160" y="482" width="47" height="47" as="geometry" />
        </mxCell>
        <mxCell id="vDN9zw8na1QjRPx6cQHA-8" value="" style="endArrow=classic;html=1;rounded=0;entryX=0;entryY=1;entryDx=0;entryDy=0;exitX=1;exitY=0.319;exitDx=0;exitDy=0;exitPerimeter=0;" edge="1" parent="1" source="vDN9zw8na1QjRPx6cQHA-4" target="vDN9zw8na1QjRPx6cQHA-5">
          <mxGeometry width="50" height="50" relative="1" as="geometry">
            <mxPoint x="112" y="574" as="sourcePoint" />
            <mxPoint x="183" y="530" as="targetPoint" />
          </mxGeometry>
        </mxCell>
        <mxCell id="vDN9zw8na1QjRPx6cQHA-9" value="" style="endArrow=classic;html=1;rounded=0;exitX=1;exitY=0.319;exitDx=0;exitDy=0;exitPerimeter=0;" edge="1" parent="1">
          <mxGeometry width="50" height="50" relative="1" as="geometry">
            <mxPoint x="105" y="479" as="sourcePoint" />
            <mxPoint x="162" y="497" as="targetPoint" />
            <Array as="points" />
          </mxGeometry>
        </mxCell>
        <mxCell id="vDN9zw8na1QjRPx6cQHA-11" value="z1" style="ellipse;whiteSpace=wrap;html=1;aspect=fixed;fillColor=#f8cecc;strokeColor=#b85450;gradientColor=#ea6b66;" vertex="1" parent="1">
          <mxGeometry x="266" y="420" width="47" height="47" as="geometry" />
        </mxCell>
        <mxCell id="vDN9zw8na1QjRPx6cQHA-12" value="z2" style="ellipse;whiteSpace=wrap;html=1;aspect=fixed;fillColor=#f8cecc;strokeColor=#b85450;gradientColor=#ea6b66;" vertex="1" parent="1">
          <mxGeometry x="269" y="516" width="47" height="47" as="geometry" />
        </mxCell>
        <mxCell id="vDN9zw8na1QjRPx6cQHA-13" value="" style="endArrow=classic;html=1;rounded=0;exitX=1;exitY=0.319;exitDx=0;exitDy=0;exitPerimeter=0;entryX=0;entryY=1;entryDx=0;entryDy=0;" edge="1" parent="1" target="vDN9zw8na1QjRPx6cQHA-11">
          <mxGeometry width="50" height="50" relative="1" as="geometry">
            <mxPoint x="204" y="496.5" as="sourcePoint" />
            <mxPoint x="261" y="514.5" as="targetPoint" />
            <Array as="points" />
          </mxGeometry>
        </mxCell>
        <mxCell id="vDN9zw8na1QjRPx6cQHA-14" value="" style="endArrow=classic;html=1;rounded=0;exitX=1;exitY=0.319;exitDx=0;exitDy=0;exitPerimeter=0;entryX=0;entryY=0.277;entryDx=0;entryDy=0;entryPerimeter=0;" edge="1" parent="1" target="vDN9zw8na1QjRPx6cQHA-12">
          <mxGeometry width="50" height="50" relative="1" as="geometry">
            <mxPoint x="204" y="520.5" as="sourcePoint" />
            <mxPoint x="255" y="482" as="targetPoint" />
            <Array as="points" />
          </mxGeometry>
        </mxCell>
        <mxCell id="vDN9zw8na1QjRPx6cQHA-15" value="u1" style="ellipse;whiteSpace=wrap;html=1;aspect=fixed;fillColor=#f8cecc;strokeColor=#b85450;gradientColor=#ea6b66;" vertex="1" parent="1">
          <mxGeometry x="396" y="397" width="47" height="47" as="geometry" />
        </mxCell>
        <mxCell id="vDN9zw8na1QjRPx6cQHA-16" value="u2" style="ellipse;whiteSpace=wrap;html=1;aspect=fixed;fillColor=#f8cecc;strokeColor=#b85450;gradientColor=#ea6b66;" vertex="1" parent="1">
          <mxGeometry x="406" y="540" width="47" height="47" as="geometry" />
        </mxCell>
        <mxCell id="vDN9zw8na1QjRPx6cQHA-17" value="" style="endArrow=classic;html=1;rounded=0;entryX=0.021;entryY=0.723;entryDx=0;entryDy=0;entryPerimeter=0;exitX=1.021;exitY=0.34;exitDx=0;exitDy=0;exitPerimeter=0;" edge="1" parent="1" source="vDN9zw8na1QjRPx6cQHA-2" target="vDN9zw8na1QjRPx6cQHA-16">
          <mxGeometry width="50" height="50" relative="1" as="geometry">
            <mxPoint x="323" y="607" as="sourcePoint" />
            <mxPoint x="409" y="456" as="targetPoint" />
          </mxGeometry>
        </mxCell>
        <mxCell id="vDN9zw8na1QjRPx6cQHA-18" value="" style="endArrow=classic;html=1;rounded=0;entryX=0;entryY=0.5;entryDx=0;entryDy=0;" edge="1" parent="1" target="vDN9zw8na1QjRPx6cQHA-16">
          <mxGeometry width="50" height="50" relative="1" as="geometry">
            <mxPoint x="318" y="541" as="sourcePoint" />
            <mxPoint x="413" y="582" as="targetPoint" />
          </mxGeometry>
        </mxCell>
        <mxCell id="vDN9zw8na1QjRPx6cQHA-19" value="" style="endArrow=classic;html=1;rounded=0;exitX=1;exitY=0.5;exitDx=0;exitDy=0;entryX=0;entryY=0.5;entryDx=0;entryDy=0;" edge="1" parent="1" source="vDN9zw8na1QjRPx6cQHA-11" target="vDN9zw8na1QjRPx6cQHA-15">
          <mxGeometry width="50" height="50" relative="1" as="geometry">
            <mxPoint x="313" y="465" as="sourcePoint" />
            <mxPoint x="400" y="443" as="targetPoint" />
          </mxGeometry>
        </mxCell>
        <mxCell id="vDN9zw8na1QjRPx6cQHA-20" value="" style="endArrow=classic;html=1;rounded=0;exitX=1;exitY=0.5;exitDx=0;exitDy=0;entryX=0;entryY=0;entryDx=0;entryDy=0;" edge="1" parent="1" source="vDN9zw8na1QjRPx6cQHA-1" target="vDN9zw8na1QjRPx6cQHA-15">
          <mxGeometry width="50" height="50" relative="1" as="geometry">
            <mxPoint x="314" y="427" as="sourcePoint" />
            <mxPoint x="402" y="421" as="targetPoint" />
          </mxGeometry>
        </mxCell>
        <mxCell id="vDN9zw8na1QjRPx6cQHA-25" value="u" style="ellipse;whiteSpace=wrap;html=1;aspect=fixed;fillColor=#f8cecc;strokeColor=#b85450;gradientColor=#ea6b66;" vertex="1" parent="1">
          <mxGeometry x="489" y="467" width="47" height="47" as="geometry" />
        </mxCell>
        <mxCell id="vDN9zw8na1QjRPx6cQHA-27" value="" style="endArrow=classic;html=1;rounded=0;exitX=1;exitY=0;exitDx=0;exitDy=0;" edge="1" parent="1" source="vDN9zw8na1QjRPx6cQHA-16">
          <mxGeometry width="50" height="50" relative="1" as="geometry">
            <mxPoint x="448" y="556" as="sourcePoint" />
            <mxPoint x="498" y="506" as="targetPoint" />
          </mxGeometry>
        </mxCell>
        <mxCell id="vDN9zw8na1QjRPx6cQHA-28" value="" style="endArrow=classic;html=1;rounded=0;exitX=1;exitY=0;exitDx=0;exitDy=0;entryX=0;entryY=0;entryDx=0;entryDy=0;" edge="1" parent="1" target="vDN9zw8na1QjRPx6cQHA-25">
          <mxGeometry width="50" height="50" relative="1" as="geometry">
            <mxPoint x="440" y="434" as="sourcePoint" />
            <mxPoint x="492" y="393" as="targetPoint" />
          </mxGeometry>
        </mxCell>
        <mxCell id="vDN9zw8na1QjRPx6cQHA-29" value="l" style="ellipse;whiteSpace=wrap;html=1;aspect=fixed;fillColor=#dae8fc;strokeColor=#6c8ebf;gradientColor=#7ea6e0;" vertex="1" parent="1">
          <mxGeometry x="574" y="467" width="47" height="47" as="geometry" />
        </mxCell>
        <mxCell id="vDN9zw8na1QjRPx6cQHA-31" value="" style="endArrow=classic;html=1;rounded=0;exitX=1;exitY=0.5;exitDx=0;exitDy=0;entryX=0;entryY=0.5;entryDx=0;entryDy=0;" edge="1" parent="1" source="vDN9zw8na1QjRPx6cQHA-25" target="vDN9zw8na1QjRPx6cQHA-29">
          <mxGeometry width="50" height="50" relative="1" as="geometry">
            <mxPoint x="387" y="434" as="sourcePoint" />
            <mxPoint x="506" y="412" as="targetPoint" />
          </mxGeometry>
        </mxCell>
      </root>
    </mxGraphModel>
  </diagram>
</mxfile>
